<?xml version="1.0" standalone="no"?>
<!DOCTYPE svg PUBLIC "-//W3C//DTD SVG 20010904//EN"
 "http://www.w3.org/TR/2001/REC-SVG-20010904/DTD/svg10.dtd">
<svg version="1.0" xmlns="http://www.w3.org/2000/svg"
 width="2048.000000pt" height="2048.000000pt" viewBox="0 0 2048.000000 2048.000000"
 preserveAspectRatio="xMidYMid meet">

<g transform="translate(0.000000,2048.000000) scale(0.100000,-0.100000)"
fill="#000000" stroke="none">
<path d="M10209 12577 c-68 -40 -214 -126 -324 -190 -110 -64 -208 -122 -219
-129 -16 -12 0 -17 138 -43 86 -17 156 -34 156 -40 0 -23 -148 -317 -166 -329
-64 -44 -710 -417 -1189 -686 -159 -89 -308 -173 -330 -185 -88 -50 -487 -265
-593 -320 -62 -32 -110 -60 -108 -62 2 -2 34 3 72 11 38 8 121 24 184 35 63
12 193 35 289 51 95 17 174 30 176 28 2 -2 -17 -73 -40 -158 -24 -85 -85 -303
-135 -485 -50 -181 -116 -413 -145 -515 -49 -166 -201 -710 -351 -1255 -31
-110 -89 -319 -129 -465 -103 -371 -116 -422 -112 -427 5 -4 647 453 700 499
33 30 41 45 71 153 19 66 68 244 111 395 129 460 294 1043 297 1045 5 5 533
15 803 15 l270 0 26 93 c15 50 49 166 77 257 27 91 52 177 56 193 l6 27 -535
0 c-294 0 -535 2 -535 4 0 3 23 87 51 188 78 280 151 412 283 511 68 52 108
71 213 104 l88 28 1399 3 c1254 2 1405 1 1454 -13 101 -30 165 -84 206 -175
48 -108 41 -239 -21 -366 -40 -84 -138 -184 -217 -223 -117 -57 -162 -61 -728
-61 -481 0 -510 1 -505 18 2 9 20 69 39 132 20 63 38 127 42 143 l6 27 -299 0
-299 0 -20 -72 c-32 -119 -166 -579 -225 -778 -58 -195 -147 -511 -147 -523 0
-4 135 -7 299 -7 l299 0 11 33 c32 103 121 417 121 429 0 9 10 18 23 22 12 3
281 6 597 6 626 0 701 5 860 56 123 38 182 67 290 138 183 122 333 312 410
518 48 131 64 226 64 388 -1 186 -18 263 -93 415 -136 275 -371 428 -713 465
-61 6 -495 10 -1161 10 -585 0 -1091 3 -1123 6 l-60 6 26 28 c24 26 120 208
120 229 0 10 61 19 154 24 l50 2 47 123 c26 68 49 126 53 129 4 5 55 -23 231
-128 l31 -18 -123 366 c-68 202 -124 368 -126 370 -2 1 -59 -30 -128 -70z"/>
<path d="M8874 12390 c-112 -24 -208 -100 -261 -208 -37 -73 -38 -80 -38 -182
0 -99 2 -109 33 -172 43 -88 106 -152 190 -191 62 -30 75 -32 172 -32 93 0
112 3 162 27 155 73 246 244 219 416 -29 189 -182 334 -366 346 -38 3 -89 1
-111 -4z"/>
</g>
</svg>
