<?xml version="1.0" standalone="no"?>
<!DOCTYPE svg PUBLIC "-//W3C//DTD SVG 20010904//EN"
 "http://www.w3.org/TR/2001/REC-SVG-20010904/DTD/svg10.dtd">
<svg version="1.0" xmlns="http://www.w3.org/2000/svg"
 width="2048.000000pt" height="2048.000000pt" viewBox="0 0 2048.000000 2048.000000"
 preserveAspectRatio="xMidYMid meet">

<g transform="translate(0.000000,2048.000000) scale(0.100000,-0.100000)"
fill="#000000" stroke="none">
<path d="M6719 12847 c-68 -40 -214 -126 -324 -190 -110 -64 -208 -122 -219
-129 -16 -12 0 -17 138 -43 86 -17 156 -34 156 -40 0 -23 -148 -317 -166 -329
-64 -44 -710 -417 -1189 -686 -159 -89 -308 -173 -330 -185 -88 -50 -487 -265
-593 -320 -62 -32 -110 -60 -108 -62 2 -2 34 3 72 11 38 8 121 24 184 35 63
12 193 35 289 51 95 17 174 30 176 28 2 -2 -17 -73 -40 -158 -24 -85 -85 -303
-135 -485 -50 -181 -116 -413 -145 -515 -49 -166 -201 -710 -351 -1255 -31
-110 -89 -319 -129 -465 -103 -371 -116 -422 -112 -427 5 -4 647 453 700 499
33 30 41 45 71 153 19 66 68 244 111 395 129 460 294 1043 297 1045 5 5 533
15 803 15 l270 0 26 93 c15 50 49 166 77 257 27 91 52 177 56 193 l6 27 -535
0 c-294 0 -535 2 -535 4 0 3 23 87 51 188 78 280 151 412 283 511 68 52 108
71 213 104 l88 28 1399 3 c1254 2 1405 1 1454 -13 101 -30 165 -84 206 -175
48 -108 41 -239 -21 -366 -40 -84 -138 -184 -217 -223 -117 -57 -162 -61 -728
-61 -481 0 -510 1 -505 18 2 9 20 69 39 132 20 63 38 127 42 143 l6 27 -299 0
-299 0 -20 -72 c-32 -119 -166 -579 -225 -778 -58 -195 -147 -511 -147 -523 0
-4 135 -7 299 -7 l299 0 11 33 c32 103 121 417 121 429 0 9 10 18 23 22 12 3
281 6 597 6 626 0 701 5 860 56 123 38 182 67 290 138 183 122 333 312 410
518 48 131 64 226 64 388 -1 186 -18 263 -93 415 -136 275 -371 428 -713 465
-61 6 -495 10 -1161 10 -585 0 -1091 3 -1123 6 l-60 6 26 28 c24 26 120 208
120 229 0 10 61 19 154 24 l50 2 47 123 c26 68 49 126 53 129 4 5 55 -23 231
-128 l31 -18 -123 366 c-68 202 -124 368 -126 370 -2 1 -59 -30 -128 -70z"/>
<path d="M5384 12660 c-112 -24 -208 -100 -261 -208 -37 -73 -38 -80 -38 -182
0 -99 2 -109 33 -172 43 -88 106 -152 190 -191 62 -30 75 -32 172 -32 93 0
112 3 162 27 155 73 246 244 219 416 -29 189 -182 334 -366 346 -38 3 -89 1
-111 -4z"/>
<path d="M6560 8850 l0 -120 115 0 115 0 0 120 0 120 -115 0 -115 0 0 -120z"/>
<path d="M5340 8250 l0 -640 115 0 115 0 0 250 0 250 335 0 335 0 0 103 0 102
-335 0 -335 0 0 180 0 180 365 -1 365 0 0 108 0 108 -480 0 -480 0 0 -640z"/>
<path d="M8040 8251 l0 -641 120 0 120 0 0 190 0 190 208 0 c230 0 293 10 390
59 186 95 267 328 192 556 -39 118 -140 214 -270 257 -61 21 -87 22 -412 26
l-348 3 0 -640z m685 405 c90 -38 134 -111 135 -219 0 -106 -38 -174 -125
-220 -36 -20 -58 -22 -247 -25 l-208 -4 0 247 0 248 203 -5 c159 -4 210 -9
242 -22z"/>
<path d="M7200 8700 l0 -120 -75 0 -75 0 0 -100 0 -100 74 0 75 0 3 -267 c3
-254 5 -271 27 -327 32 -80 99 -146 177 -176 50 -18 74 -21 154 -18 85 3 102
7 158 37 34 19 61 37 60 41 -2 3 -16 37 -32 76 -17 38 -31 71 -32 73 -2 2 -23
-5 -48 -14 -32 -12 -64 -16 -106 -13 -80 6 -115 38 -130 118 -8 42 -8 398 -1
463 1 4 66 7 146 7 l145 0 0 100 0 100 -145 0 -145 0 0 120 0 120 -115 0 -115
0 0 -120z"/>
<path d="M9793 8585 c-81 -22 -126 -49 -177 -106 l-46 -51 0 30 c0 16 -3 50
-6 76 l-7 47 -106 -3 -106 -3 1 -330 c0 -181 2 -399 2 -482 l2 -153 115 0 115
0 0 301 c0 287 1 303 21 335 30 49 102 109 147 122 54 16 169 15 228 -3 48
-14 63 -10 64 20 0 6 12 47 27 92 14 46 24 85 21 88 -11 11 -145 35 -193 34
-27 0 -74 -7 -102 -14z"/>
<path d="M10562 8580 c-100 -26 -164 -63 -227 -132 -258 -279 -129 -759 226
-843 35 -8 102 -15 149 -15 273 0 473 165 512 423 33 221 -72 440 -254 529
-120 59 -272 73 -406 38z m286 -217 c122 -58 177 -223 128 -387 -36 -122 -153
-196 -293 -183 -153 15 -246 129 -246 302 0 126 48 222 135 266 86 44 186 44
276 2z"/>
<path d="M13179 8586 c-68 -18 -135 -62 -172 -111 -29 -40 -49 -56 -46 -37 1
4 1 37 0 75 l-1 67 -110 0 -110 0 0 -485 0 -485 115 0 115 0 0 286 c0 277 1
288 22 332 62 122 225 182 377 136 29 -8 54 -14 55 -12 12 26 65 202 62 205
-3 3 -36 14 -73 24 -77 22 -166 23 -234 5z"/>
<path d="M13956 8584 c-216 -52 -348 -214 -363 -444 -17 -276 133 -482 390
-537 94 -20 246 -12 342 18 91 28 168 67 162 82 -31 78 -72 157 -81 153 -114
-51 -145 -59 -242 -64 -115 -5 -175 9 -242 58 -37 26 -92 115 -92 147 0 10 48
13 233 13 127 0 297 3 376 7 l144 6 -7 98 c-11 169 -53 267 -155 362 -112 103
-294 143 -465 101z m252 -200 c20 -8 50 -27 66 -42 32 -31 76 -116 76 -149 l0
-23 -265 0 c-163 0 -265 4 -265 10 0 5 9 34 20 64 20 53 70 109 120 136 59 31
178 34 248 4z"/>
<path d="M15036 8584 c-162 -36 -246 -119 -262 -257 -8 -69 16 -155 57 -202
44 -50 117 -81 269 -115 208 -47 262 -84 230 -160 -18 -43 -61 -63 -151 -68
-92 -5 -205 17 -298 59 -35 16 -65 28 -66 27 0 -2 -17 -40 -37 -85 l-36 -82
32 -19 c113 -67 253 -97 412 -89 125 6 192 24 260 70 73 49 106 110 112 206 5
95 -8 139 -56 193 -50 56 -107 81 -267 118 -167 40 -196 51 -225 87 -39 50 -1
111 83 134 77 21 247 -6 326 -52 18 -11 35 -19 36 -17 2 2 15 32 30 68 15 36
33 75 41 88 14 22 13 23 -33 44 -130 58 -331 81 -457 52z"/>
<path d="M16022 8585 c-178 -39 -281 -174 -254 -332 25 -149 99 -198 392 -262
52 -12 110 -30 127 -41 59 -36 55 -108 -7 -144 -29 -18 -52 -21 -140 -21 -115
0 -174 13 -262 57 -32 15 -60 28 -62 28 -10 0 -76 -154 -72 -167 7 -18 89 -57
176 -85 63 -19 96 -23 210 -23 177 0 253 22 334 95 64 59 89 114 90 198 0 76
-18 126 -66 178 -49 53 -108 78 -272 115 -160 36 -210 59 -225 101 -22 63 31
117 125 125 75 7 221 -20 286 -53 l48 -24 10 25 c23 61 54 131 63 142 14 19
-84 61 -196 84 -107 22 -215 23 -305 4z"/>
<path d="M11785 8578 c-84 -16 -166 -62 -229 -127 -86 -91 -126 -200 -126
-346 0 -146 46 -270 130 -353 89 -87 182 -121 336 -122 104 0 168 16 237 60
26 16 49 30 50 30 2 0 0 -36 -4 -81 -9 -104 -35 -146 -116 -185 -52 -26 -68
-29 -158 -29 -115 0 -186 15 -269 57 -32 16 -59 28 -60 26 -1 -2 -18 -40 -38
-86 l-37 -83 37 -22 c96 -59 191 -86 332 -93 311 -17 510 131 540 401 5 50 10
284 10 521 l0 431 -197 6 c-249 9 -375 7 -438 -5z m395 -422 l0 -234 -42 -37
c-58 -49 -131 -69 -228 -62 -87 6 -143 29 -184 78 -47 56 -59 96 -60 199 -1
85 2 101 27 153 55 111 115 135 335 136 l152 1 0 -234z"/>
<path d="M6560 8095 l0 -485 115 0 115 0 0 485 0 485 -115 0 -115 0 0 -485z"/>
</g>
</svg>
